<svg xmlns="http://www.w3.org/2000/svg" xmlns:xlink="http://www.w3.org/1999/xlink" width="156.813" height="156.813" viewBox="0 0 156.813 156.813"><defs><style>.a{fill:none;}.b{clip-path:url(#a);}.c{fill:#00e9b3;}</style><clipPath id="a"><rect class="a" width="156.813" height="156.813"/></clipPath></defs><g class="b"><rect class="c" width="27.051" height="27.051" transform="translate(0 32.557)"/><rect class="c" width="27.051" height="27.051" transform="translate(32.552)"/><rect class="c" width="27.051" height="27.051" transform="translate(97.205)"/><rect class="c" width="27.051" height="27.051" transform="translate(32.552 97.661)"/><rect class="c" width="27.051" height="27.051" transform="translate(65.109 97.661)"/><rect class="c" width="27.051" height="27.051" transform="translate(65.109 129.757)"/><rect class="c" width="27.051" height="27.051" transform="translate(97.205 97.661)"/><rect class="c" width="27.051" height="27.051" transform="translate(129.757 32.557)"/><path class="c" d="M59.23,59.23V86.286H62.9V77.114H81.7v9.173h4.589V59.23ZM81.7,72.97H62.9V62.9H81.7Z" transform="translate(-26.678 -26.678)"/><path class="c" d="M118.47,59.23V86.286h3.666V77.114h23.385V59.23Zm22.467,13.74h-18.8V62.9h18.8Z" transform="translate(-53.361 -26.678)"/><path class="c" d="M176.87,59.23V86.286h3.666V76.657h23.385V59.23Zm22.467,13.74h-18.8V62.9h18.8Z" transform="translate(-79.665 -26.678)"/><path class="c" d="M0,118.47v27.051H27.051v-4.584H3.666V118.47Z" transform="translate(0 -53.361)"/><path class="c" d="M59.23,145.521H85.824V118.47H59.23ZM81.7,140.937H62.9V122.608H81.7Z" transform="translate(-26.678 -53.361)"/><path class="c" d="M131.528,140.019l-11.2-21.549H118.47v7.337l10.261,19.714h6.062l10.728-21.093V118.47h-2.33L132,140.019Z" transform="translate(-53.361 -53.361)"/><path class="c" d="M176.87,145.521h27.051v-4.584H181v-7.793h22.923v-4.127H181V122.6h22.923V118.47H176.87Z" transform="translate(-79.665 -53.361)"/><path class="c" d="M239.771,121.68h18.807v10.085h-18.8Zm-3.671-3.21v27.051h3.671V135.436H252.61l5.969,10.085h4.589L257.2,135.436h5.963V118.47Z" transform="translate(-106.343 -53.361)"/></g></svg>